G75*
%MOIN*%
%OFA0B0*%
%FSLAX25Y25*%
%IPPOS*%
%LPD*%
%AMOC8*
5,1,8,0,0,1.08239X$1,22.5*
%
%ADD10C,0.04156*%
%ADD11C,0.06000*%
%ADD12C,0.07500*%
%ADD13OC8,0.07500*%
%ADD14OC8,0.04800*%
%ADD15C,0.07400*%
%ADD16C,0.07050*%
%ADD17C,0.08600*%
%ADD18C,0.07400*%
%ADD19C,0.00600*%
%ADD20C,0.02000*%
%ADD21C,0.02700*%
D10*
X0045665Y0148891D02*
X0045665Y0153047D01*
X0053539Y0153047D02*
X0053539Y0148891D01*
X0061413Y0148891D02*
X0061413Y0153047D01*
X0069287Y0153047D02*
X0069287Y0148891D01*
X0077161Y0148891D02*
X0077161Y0153047D01*
X0085035Y0153047D02*
X0085035Y0148891D01*
X0092909Y0148891D02*
X0092909Y0153047D01*
X0100783Y0153047D02*
X0100783Y0148891D01*
X0100783Y0208165D02*
X0100783Y0212321D01*
X0092909Y0212321D02*
X0092909Y0208165D01*
X0085035Y0208165D02*
X0085035Y0212321D01*
X0077161Y0212321D02*
X0077161Y0208165D01*
X0069287Y0208165D02*
X0069287Y0212321D01*
X0061413Y0212321D02*
X0061413Y0208165D01*
X0053539Y0208165D02*
X0053539Y0212321D01*
X0045665Y0212321D02*
X0045665Y0208165D01*
D11*
X0150500Y0181000D02*
X0156500Y0181000D01*
X0156500Y0171000D02*
X0150500Y0171000D01*
X0150500Y0161000D02*
X0156500Y0161000D01*
D12*
X0133500Y0166000D03*
X0133500Y0206000D03*
D13*
X0133500Y0186000D03*
X0133500Y0146000D03*
D14*
X0136000Y0116000D03*
X0136000Y0106000D03*
X0136000Y0096000D03*
X0143500Y0086000D03*
X0151000Y0086000D03*
X0156000Y0096000D03*
X0156000Y0106000D03*
X0156000Y0116000D03*
X0176000Y0116000D03*
X0176000Y0106000D03*
X0176000Y0096000D03*
X0191000Y0086000D03*
X0196000Y0096000D03*
X0203500Y0091000D03*
X0196000Y0106000D03*
X0196000Y0116000D03*
X0221000Y0093500D03*
X0238500Y0093500D03*
X0256000Y0093500D03*
X0256000Y0053500D03*
X0238500Y0053500D03*
X0221000Y0053500D03*
X0203500Y0051000D03*
X0191000Y0068500D03*
X0151000Y0068500D03*
X0143500Y0068500D03*
X0143500Y0051000D03*
X0103500Y0051000D03*
X0096000Y0051000D03*
X0096000Y0068500D03*
X0103500Y0068500D03*
X0103500Y0086000D03*
X0096000Y0086000D03*
X0096000Y0096000D03*
X0096000Y0106000D03*
X0096000Y0116000D03*
X0076000Y0116000D03*
X0076000Y0106000D03*
X0076000Y0096000D03*
X0056000Y0096000D03*
X0056000Y0086000D03*
X0048500Y0086000D03*
X0036000Y0096000D03*
X0036000Y0106000D03*
X0036000Y0116000D03*
X0016000Y0116000D03*
X0016000Y0106000D03*
X0016000Y0096000D03*
X0008500Y0086000D03*
X0008500Y0068500D03*
X0008500Y0051000D03*
X0048500Y0051000D03*
X0056000Y0051000D03*
X0056000Y0068500D03*
X0048500Y0068500D03*
X0056000Y0106000D03*
X0056000Y0116000D03*
X0116000Y0116000D03*
X0116000Y0106000D03*
X0116000Y0096000D03*
D15*
X0051000Y0029700D02*
X0051000Y0022300D01*
X0061000Y0022300D02*
X0061000Y0029700D01*
X0071000Y0029700D02*
X0071000Y0022300D01*
D16*
X0103657Y0022025D02*
X0103657Y0014975D01*
X0123343Y0014975D02*
X0123343Y0022025D01*
X0161157Y0022025D02*
X0161157Y0014975D01*
X0180843Y0014975D02*
X0180843Y0022025D01*
X0211157Y0022025D02*
X0211157Y0014975D01*
X0230843Y0014975D02*
X0230843Y0022025D01*
X0143343Y0229975D02*
X0143343Y0237025D01*
X0123657Y0237025D02*
X0123657Y0229975D01*
D17*
X0171413Y0236000D03*
X0185193Y0236000D03*
X0211413Y0236000D03*
X0225193Y0236000D03*
D18*
X0254600Y0196300D03*
X0272400Y0196300D03*
X0272400Y0170700D03*
X0254600Y0170700D03*
X0254600Y0146300D03*
X0272400Y0146300D03*
X0272400Y0120700D03*
X0254600Y0120700D03*
D19*
X0220900Y0088900D02*
X0199300Y0110500D01*
X0199300Y0117400D01*
X0197200Y0119500D01*
X0184300Y0119500D01*
X0177400Y0112600D01*
X0119500Y0112600D01*
X0116200Y0115900D01*
X0116000Y0116000D01*
X0115900Y0116200D01*
X0115900Y0142300D01*
X0073900Y0184300D01*
X0073900Y0212200D01*
X0070600Y0215500D01*
X0052300Y0215500D01*
X0045700Y0208900D01*
X0045700Y0208300D01*
X0045665Y0208165D01*
X0069287Y0208165D02*
X0069400Y0208000D01*
X0069400Y0157300D01*
X0073900Y0152800D01*
X0073900Y0118300D01*
X0076000Y0116200D01*
X0076000Y0116000D01*
X0076000Y0115900D01*
X0080800Y0115900D01*
X0104200Y0092500D01*
X0124300Y0092500D01*
X0148300Y0068500D01*
X0151000Y0068500D01*
X0160300Y0071800D02*
X0197800Y0071800D01*
X0219400Y0050200D01*
X0222400Y0050200D01*
X0250000Y0077800D01*
X0250000Y0166000D01*
X0254500Y0170500D01*
X0254600Y0170700D01*
X0254600Y0196300D02*
X0243700Y0196300D01*
X0204100Y0235900D01*
X0185200Y0235900D01*
X0185193Y0236000D01*
X0184900Y0236200D01*
X0179500Y0241600D01*
X0109900Y0241600D01*
X0077200Y0208900D01*
X0077200Y0208300D01*
X0077161Y0208165D01*
X0082300Y0189700D02*
X0156000Y0116000D01*
X0155800Y0116500D01*
X0163900Y0124600D01*
X0175900Y0116200D02*
X0176000Y0116000D01*
X0175900Y0116200D02*
X0143800Y0148300D01*
X0143800Y0182500D01*
X0123700Y0202600D01*
X0123700Y0233500D01*
X0123657Y0233500D01*
X0085035Y0153047D02*
X0085300Y0152800D01*
X0085300Y0142000D01*
X0115900Y0111400D01*
X0178000Y0111400D01*
X0182500Y0115900D01*
X0196000Y0115900D01*
X0196000Y0116000D01*
X0220900Y0088900D02*
X0220900Y0053500D01*
X0221000Y0053500D01*
X0203500Y0051100D02*
X0203500Y0051000D01*
X0203500Y0051100D02*
X0200200Y0054400D01*
X0122800Y0054400D01*
X0083500Y0093700D01*
X0096100Y0110800D02*
X0103300Y0103600D01*
X0103300Y0096700D01*
X0096100Y0110800D02*
X0096100Y0115900D01*
X0096000Y0116000D01*
X0061600Y0102700D02*
X0095800Y0068500D01*
X0096000Y0068500D01*
X0097600Y0065200D02*
X0100900Y0068500D01*
X0103500Y0068500D01*
X0097600Y0065200D02*
X0091600Y0065200D01*
X0040900Y0115900D01*
X0036100Y0115900D01*
X0036000Y0116000D01*
X0016000Y0116000D02*
X0016000Y0110800D01*
X0005200Y0100000D01*
X0005200Y0084400D01*
X0055300Y0034300D01*
X0063100Y0034300D01*
X0066400Y0031000D01*
X0066400Y0020200D01*
X0076300Y0010300D01*
X0152800Y0010300D01*
X0160900Y0018400D01*
X0161157Y0018500D01*
X0160300Y0071800D02*
X0146200Y0085900D01*
X0143500Y0085900D01*
X0143500Y0086000D01*
X0061600Y0102700D02*
X0061600Y0152800D01*
X0061413Y0153047D01*
D20*
X0041800Y0120100D02*
X0034300Y0120100D01*
X0020200Y0106000D01*
X0016000Y0106000D01*
X0025150Y0099250D02*
X0055900Y0068500D01*
X0056000Y0068500D01*
X0056800Y0067900D01*
X0079000Y0067900D01*
X0095800Y0051100D01*
X0096000Y0051000D01*
X0121000Y0068500D02*
X0103500Y0086000D01*
X0099400Y0090100D01*
X0096100Y0090100D01*
X0080200Y0106000D01*
X0076000Y0106000D01*
X0056000Y0106000D02*
X0055900Y0106000D01*
X0041800Y0120100D01*
X0036000Y0106000D02*
X0031900Y0106000D01*
X0025150Y0099250D01*
X0012100Y0086200D01*
X0008500Y0086200D01*
X0008500Y0086000D01*
X0048500Y0051000D02*
X0052600Y0046900D01*
X0061300Y0046900D01*
X0089500Y0018700D01*
X0102700Y0018700D01*
X0103657Y0018500D01*
X0103900Y0018700D01*
X0136000Y0050800D01*
X0143500Y0050800D01*
X0143500Y0051000D01*
X0148300Y0064300D02*
X0144400Y0068200D01*
X0143500Y0068500D01*
X0121000Y0068500D01*
X0148300Y0064300D02*
X0152500Y0064300D01*
X0156700Y0068500D01*
X0191000Y0068500D01*
X0191000Y0086000D02*
X0190900Y0087100D01*
X0176200Y0101800D01*
X0140200Y0101800D01*
X0136000Y0106000D01*
X0176000Y0106000D02*
X0176200Y0106000D01*
X0176200Y0101800D01*
X0191200Y0086200D02*
X0191000Y0086000D01*
X0191200Y0086200D02*
X0198700Y0086200D01*
X0203500Y0091000D01*
X0221000Y0093500D02*
X0225100Y0097600D01*
X0240100Y0097600D01*
X0244000Y0093700D01*
X0238500Y0093500D02*
X0238300Y0093400D01*
X0227200Y0093400D01*
X0223300Y0089500D01*
X0221800Y0046900D02*
X0178600Y0046900D01*
X0150400Y0018700D01*
X0123400Y0018700D01*
X0123343Y0018500D01*
X0221800Y0046900D02*
X0272200Y0097300D01*
X0272200Y0120700D01*
X0272400Y0120700D01*
X0272400Y0196300D02*
X0262300Y0196300D01*
X0228700Y0229900D01*
X0217600Y0229900D01*
X0211600Y0235900D01*
X0211413Y0236000D01*
X0171413Y0236000D02*
X0171400Y0235900D01*
X0171400Y0198700D01*
X0153700Y0181000D01*
X0153500Y0181000D01*
X0145900Y0183100D02*
X0145900Y0178600D01*
X0153500Y0171000D01*
X0145900Y0183100D02*
X0133600Y0195400D01*
X0133600Y0205900D01*
X0133500Y0206000D01*
X0133500Y0186000D02*
X0133600Y0185800D01*
X0139000Y0180400D01*
X0139000Y0163900D01*
X0133600Y0158500D01*
X0133600Y0146200D01*
X0133500Y0146000D01*
D21*
X0163900Y0124600D03*
X0223300Y0089500D03*
X0244000Y0093700D03*
X0103300Y0096700D03*
X0083500Y0093700D03*
X0082300Y0189700D03*
M02*
