G75*
%MOIN*%
%OFA0B0*%
%FSLAX25Y25*%
%IPPOS*%
%LPD*%
%AMOC8*
5,1,8,0,0,1.08239X$1,22.5*
%
%ADD10C,0.04756*%
%ADD11C,0.06600*%
%ADD12C,0.13600*%
%ADD13C,0.08100*%
%ADD14OC8,0.08100*%
%ADD15OC8,0.05400*%
%ADD16C,0.13592*%
%ADD17C,0.08000*%
%ADD18C,0.07650*%
%ADD19C,0.09200*%
%ADD20C,0.08000*%
%ADD21C,0.03300*%
D10*
X0045665Y0148891D02*
X0045665Y0153047D01*
X0053539Y0153047D02*
X0053539Y0148891D01*
X0061413Y0148891D02*
X0061413Y0153047D01*
X0069287Y0153047D02*
X0069287Y0148891D01*
X0077161Y0148891D02*
X0077161Y0153047D01*
X0085035Y0153047D02*
X0085035Y0148891D01*
X0092909Y0148891D02*
X0092909Y0153047D01*
X0100783Y0153047D02*
X0100783Y0148891D01*
X0100783Y0208165D02*
X0100783Y0212321D01*
X0092909Y0212321D02*
X0092909Y0208165D01*
X0085035Y0208165D02*
X0085035Y0212321D01*
X0077161Y0212321D02*
X0077161Y0208165D01*
X0069287Y0208165D02*
X0069287Y0212321D01*
X0061413Y0212321D02*
X0061413Y0208165D01*
X0053539Y0208165D02*
X0053539Y0212321D01*
X0045665Y0212321D02*
X0045665Y0208165D01*
D11*
X0150500Y0181000D02*
X0156500Y0181000D01*
X0156500Y0171000D02*
X0150500Y0171000D01*
X0150500Y0161000D02*
X0156500Y0161000D01*
D12*
X0212500Y0171000D03*
D13*
X0133500Y0166000D03*
X0133500Y0206000D03*
D14*
X0133500Y0186000D03*
X0133500Y0146000D03*
D15*
X0136000Y0116000D03*
X0136000Y0106000D03*
X0136000Y0096000D03*
X0143500Y0086000D03*
X0151000Y0086000D03*
X0156000Y0096000D03*
X0156000Y0106000D03*
X0156000Y0116000D03*
X0176000Y0116000D03*
X0176000Y0106000D03*
X0176000Y0096000D03*
X0191000Y0086000D03*
X0196000Y0096000D03*
X0203500Y0091000D03*
X0196000Y0106000D03*
X0196000Y0116000D03*
X0221000Y0093500D03*
X0238500Y0093500D03*
X0256000Y0093500D03*
X0256000Y0053500D03*
X0238500Y0053500D03*
X0221000Y0053500D03*
X0203500Y0051000D03*
X0191000Y0068500D03*
X0151000Y0068500D03*
X0143500Y0068500D03*
X0143500Y0051000D03*
X0103500Y0051000D03*
X0096000Y0051000D03*
X0096000Y0068500D03*
X0103500Y0068500D03*
X0103500Y0086000D03*
X0096000Y0086000D03*
X0096000Y0096000D03*
X0096000Y0106000D03*
X0096000Y0116000D03*
X0076000Y0116000D03*
X0076000Y0106000D03*
X0076000Y0096000D03*
X0056000Y0096000D03*
X0056000Y0086000D03*
X0048500Y0086000D03*
X0036000Y0096000D03*
X0036000Y0106000D03*
X0036000Y0116000D03*
X0016000Y0116000D03*
X0016000Y0106000D03*
X0016000Y0096000D03*
X0008500Y0086000D03*
X0008500Y0068500D03*
X0008500Y0051000D03*
X0048500Y0051000D03*
X0056000Y0051000D03*
X0056000Y0068500D03*
X0048500Y0068500D03*
X0056000Y0106000D03*
X0056000Y0116000D03*
X0116000Y0116000D03*
X0116000Y0106000D03*
X0116000Y0096000D03*
D16*
X0021000Y0021000D03*
X0021000Y0231000D03*
X0261000Y0231000D03*
X0261000Y0018500D03*
D17*
X0071000Y0022300D02*
X0071000Y0029700D01*
X0061000Y0029700D02*
X0061000Y0022300D01*
X0051000Y0022300D02*
X0051000Y0029700D01*
D18*
X0103657Y0022025D02*
X0103657Y0014975D01*
X0123343Y0014975D02*
X0123343Y0022025D01*
X0161157Y0022025D02*
X0161157Y0014975D01*
X0180843Y0014975D02*
X0180843Y0022025D01*
X0211157Y0022025D02*
X0211157Y0014975D01*
X0230843Y0014975D02*
X0230843Y0022025D01*
X0143343Y0229975D02*
X0143343Y0237025D01*
X0123657Y0237025D02*
X0123657Y0229975D01*
D19*
X0171413Y0236000D03*
X0185193Y0236000D03*
X0211413Y0236000D03*
X0225193Y0236000D03*
D20*
X0254600Y0196300D03*
X0272400Y0196300D03*
X0272400Y0170700D03*
X0254600Y0170700D03*
X0254600Y0146300D03*
X0272400Y0146300D03*
X0272400Y0120700D03*
X0254600Y0120700D03*
D21*
X0244000Y0093700D03*
X0223300Y0089500D03*
X0163900Y0124600D03*
X0103300Y0096700D03*
X0083500Y0093700D03*
X0082300Y0189700D03*
M02*
