G75*
%MOIN*%
%OFA0B0*%
%FSLAX25Y25*%
%IPPOS*%
%LPD*%
%AMOC8*
5,1,8,0,0,1.08239X$1,22.5*
%
%ADD10C,0.00000*%
D10*
X0001000Y0001000D02*
X0001000Y0250961D01*
X0279701Y0250961D01*
X0279701Y0001000D01*
X0001000Y0001000D01*
X0014504Y0021000D02*
X0014506Y0021161D01*
X0014512Y0021321D01*
X0014522Y0021482D01*
X0014536Y0021642D01*
X0014554Y0021801D01*
X0014575Y0021961D01*
X0014601Y0022119D01*
X0014631Y0022277D01*
X0014664Y0022434D01*
X0014702Y0022591D01*
X0014743Y0022746D01*
X0014788Y0022900D01*
X0014837Y0023053D01*
X0014890Y0023205D01*
X0014946Y0023355D01*
X0015006Y0023504D01*
X0015070Y0023652D01*
X0015137Y0023798D01*
X0015208Y0023942D01*
X0015283Y0024084D01*
X0015361Y0024225D01*
X0015442Y0024363D01*
X0015527Y0024500D01*
X0015616Y0024634D01*
X0015707Y0024766D01*
X0015802Y0024896D01*
X0015900Y0025023D01*
X0016001Y0025148D01*
X0016105Y0025271D01*
X0016212Y0025390D01*
X0016322Y0025507D01*
X0016435Y0025622D01*
X0016551Y0025733D01*
X0016669Y0025842D01*
X0016790Y0025947D01*
X0016914Y0026050D01*
X0017040Y0026150D01*
X0017169Y0026246D01*
X0017300Y0026339D01*
X0017433Y0026429D01*
X0017568Y0026516D01*
X0017706Y0026599D01*
X0017845Y0026678D01*
X0017987Y0026755D01*
X0018130Y0026828D01*
X0018275Y0026897D01*
X0018422Y0026962D01*
X0018570Y0027024D01*
X0018720Y0027083D01*
X0018871Y0027137D01*
X0019023Y0027188D01*
X0019177Y0027235D01*
X0019332Y0027278D01*
X0019487Y0027317D01*
X0019644Y0027353D01*
X0019802Y0027385D01*
X0019960Y0027412D01*
X0020119Y0027436D01*
X0020278Y0027456D01*
X0020438Y0027472D01*
X0020599Y0027484D01*
X0020759Y0027492D01*
X0020920Y0027496D01*
X0021080Y0027496D01*
X0021241Y0027492D01*
X0021401Y0027484D01*
X0021562Y0027472D01*
X0021722Y0027456D01*
X0021881Y0027436D01*
X0022040Y0027412D01*
X0022198Y0027385D01*
X0022356Y0027353D01*
X0022513Y0027317D01*
X0022668Y0027278D01*
X0022823Y0027235D01*
X0022977Y0027188D01*
X0023129Y0027137D01*
X0023280Y0027083D01*
X0023430Y0027024D01*
X0023578Y0026962D01*
X0023725Y0026897D01*
X0023870Y0026828D01*
X0024013Y0026755D01*
X0024155Y0026678D01*
X0024294Y0026599D01*
X0024432Y0026516D01*
X0024567Y0026429D01*
X0024700Y0026339D01*
X0024831Y0026246D01*
X0024960Y0026150D01*
X0025086Y0026050D01*
X0025210Y0025947D01*
X0025331Y0025842D01*
X0025449Y0025733D01*
X0025565Y0025622D01*
X0025678Y0025507D01*
X0025788Y0025390D01*
X0025895Y0025271D01*
X0025999Y0025148D01*
X0026100Y0025023D01*
X0026198Y0024896D01*
X0026293Y0024766D01*
X0026384Y0024634D01*
X0026473Y0024500D01*
X0026558Y0024363D01*
X0026639Y0024225D01*
X0026717Y0024084D01*
X0026792Y0023942D01*
X0026863Y0023798D01*
X0026930Y0023652D01*
X0026994Y0023504D01*
X0027054Y0023355D01*
X0027110Y0023205D01*
X0027163Y0023053D01*
X0027212Y0022900D01*
X0027257Y0022746D01*
X0027298Y0022591D01*
X0027336Y0022434D01*
X0027369Y0022277D01*
X0027399Y0022119D01*
X0027425Y0021961D01*
X0027446Y0021801D01*
X0027464Y0021642D01*
X0027478Y0021482D01*
X0027488Y0021321D01*
X0027494Y0021161D01*
X0027496Y0021000D01*
X0027494Y0020839D01*
X0027488Y0020679D01*
X0027478Y0020518D01*
X0027464Y0020358D01*
X0027446Y0020199D01*
X0027425Y0020039D01*
X0027399Y0019881D01*
X0027369Y0019723D01*
X0027336Y0019566D01*
X0027298Y0019409D01*
X0027257Y0019254D01*
X0027212Y0019100D01*
X0027163Y0018947D01*
X0027110Y0018795D01*
X0027054Y0018645D01*
X0026994Y0018496D01*
X0026930Y0018348D01*
X0026863Y0018202D01*
X0026792Y0018058D01*
X0026717Y0017916D01*
X0026639Y0017775D01*
X0026558Y0017637D01*
X0026473Y0017500D01*
X0026384Y0017366D01*
X0026293Y0017234D01*
X0026198Y0017104D01*
X0026100Y0016977D01*
X0025999Y0016852D01*
X0025895Y0016729D01*
X0025788Y0016610D01*
X0025678Y0016493D01*
X0025565Y0016378D01*
X0025449Y0016267D01*
X0025331Y0016158D01*
X0025210Y0016053D01*
X0025086Y0015950D01*
X0024960Y0015850D01*
X0024831Y0015754D01*
X0024700Y0015661D01*
X0024567Y0015571D01*
X0024432Y0015484D01*
X0024294Y0015401D01*
X0024155Y0015322D01*
X0024013Y0015245D01*
X0023870Y0015172D01*
X0023725Y0015103D01*
X0023578Y0015038D01*
X0023430Y0014976D01*
X0023280Y0014917D01*
X0023129Y0014863D01*
X0022977Y0014812D01*
X0022823Y0014765D01*
X0022668Y0014722D01*
X0022513Y0014683D01*
X0022356Y0014647D01*
X0022198Y0014615D01*
X0022040Y0014588D01*
X0021881Y0014564D01*
X0021722Y0014544D01*
X0021562Y0014528D01*
X0021401Y0014516D01*
X0021241Y0014508D01*
X0021080Y0014504D01*
X0020920Y0014504D01*
X0020759Y0014508D01*
X0020599Y0014516D01*
X0020438Y0014528D01*
X0020278Y0014544D01*
X0020119Y0014564D01*
X0019960Y0014588D01*
X0019802Y0014615D01*
X0019644Y0014647D01*
X0019487Y0014683D01*
X0019332Y0014722D01*
X0019177Y0014765D01*
X0019023Y0014812D01*
X0018871Y0014863D01*
X0018720Y0014917D01*
X0018570Y0014976D01*
X0018422Y0015038D01*
X0018275Y0015103D01*
X0018130Y0015172D01*
X0017987Y0015245D01*
X0017845Y0015322D01*
X0017706Y0015401D01*
X0017568Y0015484D01*
X0017433Y0015571D01*
X0017300Y0015661D01*
X0017169Y0015754D01*
X0017040Y0015850D01*
X0016914Y0015950D01*
X0016790Y0016053D01*
X0016669Y0016158D01*
X0016551Y0016267D01*
X0016435Y0016378D01*
X0016322Y0016493D01*
X0016212Y0016610D01*
X0016105Y0016729D01*
X0016001Y0016852D01*
X0015900Y0016977D01*
X0015802Y0017104D01*
X0015707Y0017234D01*
X0015616Y0017366D01*
X0015527Y0017500D01*
X0015442Y0017637D01*
X0015361Y0017775D01*
X0015283Y0017916D01*
X0015208Y0018058D01*
X0015137Y0018202D01*
X0015070Y0018348D01*
X0015006Y0018496D01*
X0014946Y0018645D01*
X0014890Y0018795D01*
X0014837Y0018947D01*
X0014788Y0019100D01*
X0014743Y0019254D01*
X0014702Y0019409D01*
X0014664Y0019566D01*
X0014631Y0019723D01*
X0014601Y0019881D01*
X0014575Y0020039D01*
X0014554Y0020199D01*
X0014536Y0020358D01*
X0014522Y0020518D01*
X0014512Y0020679D01*
X0014506Y0020839D01*
X0014504Y0021000D01*
X0206000Y0171000D02*
X0206002Y0171161D01*
X0206008Y0171321D01*
X0206018Y0171482D01*
X0206032Y0171642D01*
X0206050Y0171802D01*
X0206071Y0171961D01*
X0206097Y0172120D01*
X0206127Y0172278D01*
X0206160Y0172435D01*
X0206198Y0172592D01*
X0206239Y0172747D01*
X0206284Y0172901D01*
X0206333Y0173054D01*
X0206386Y0173206D01*
X0206442Y0173357D01*
X0206503Y0173506D01*
X0206566Y0173654D01*
X0206634Y0173800D01*
X0206705Y0173944D01*
X0206779Y0174086D01*
X0206857Y0174227D01*
X0206939Y0174365D01*
X0207024Y0174502D01*
X0207112Y0174636D01*
X0207204Y0174768D01*
X0207299Y0174898D01*
X0207397Y0175026D01*
X0207498Y0175151D01*
X0207602Y0175273D01*
X0207709Y0175393D01*
X0207819Y0175510D01*
X0207932Y0175625D01*
X0208048Y0175736D01*
X0208167Y0175845D01*
X0208288Y0175950D01*
X0208412Y0176053D01*
X0208538Y0176153D01*
X0208666Y0176249D01*
X0208797Y0176342D01*
X0208931Y0176432D01*
X0209066Y0176519D01*
X0209204Y0176602D01*
X0209343Y0176682D01*
X0209485Y0176758D01*
X0209628Y0176831D01*
X0209773Y0176900D01*
X0209920Y0176966D01*
X0210068Y0177028D01*
X0210218Y0177086D01*
X0210369Y0177141D01*
X0210522Y0177192D01*
X0210676Y0177239D01*
X0210831Y0177282D01*
X0210987Y0177321D01*
X0211143Y0177357D01*
X0211301Y0177388D01*
X0211459Y0177416D01*
X0211618Y0177440D01*
X0211778Y0177460D01*
X0211938Y0177476D01*
X0212098Y0177488D01*
X0212259Y0177496D01*
X0212420Y0177500D01*
X0212580Y0177500D01*
X0212741Y0177496D01*
X0212902Y0177488D01*
X0213062Y0177476D01*
X0213222Y0177460D01*
X0213382Y0177440D01*
X0213541Y0177416D01*
X0213699Y0177388D01*
X0213857Y0177357D01*
X0214013Y0177321D01*
X0214169Y0177282D01*
X0214324Y0177239D01*
X0214478Y0177192D01*
X0214631Y0177141D01*
X0214782Y0177086D01*
X0214932Y0177028D01*
X0215080Y0176966D01*
X0215227Y0176900D01*
X0215372Y0176831D01*
X0215515Y0176758D01*
X0215657Y0176682D01*
X0215796Y0176602D01*
X0215934Y0176519D01*
X0216069Y0176432D01*
X0216203Y0176342D01*
X0216334Y0176249D01*
X0216462Y0176153D01*
X0216588Y0176053D01*
X0216712Y0175950D01*
X0216833Y0175845D01*
X0216952Y0175736D01*
X0217068Y0175625D01*
X0217181Y0175510D01*
X0217291Y0175393D01*
X0217398Y0175273D01*
X0217502Y0175151D01*
X0217603Y0175026D01*
X0217701Y0174898D01*
X0217796Y0174768D01*
X0217888Y0174636D01*
X0217976Y0174502D01*
X0218061Y0174365D01*
X0218143Y0174227D01*
X0218221Y0174086D01*
X0218295Y0173944D01*
X0218366Y0173800D01*
X0218434Y0173654D01*
X0218497Y0173506D01*
X0218558Y0173357D01*
X0218614Y0173206D01*
X0218667Y0173054D01*
X0218716Y0172901D01*
X0218761Y0172747D01*
X0218802Y0172592D01*
X0218840Y0172435D01*
X0218873Y0172278D01*
X0218903Y0172120D01*
X0218929Y0171961D01*
X0218950Y0171802D01*
X0218968Y0171642D01*
X0218982Y0171482D01*
X0218992Y0171321D01*
X0218998Y0171161D01*
X0219000Y0171000D01*
X0218998Y0170839D01*
X0218992Y0170679D01*
X0218982Y0170518D01*
X0218968Y0170358D01*
X0218950Y0170198D01*
X0218929Y0170039D01*
X0218903Y0169880D01*
X0218873Y0169722D01*
X0218840Y0169565D01*
X0218802Y0169408D01*
X0218761Y0169253D01*
X0218716Y0169099D01*
X0218667Y0168946D01*
X0218614Y0168794D01*
X0218558Y0168643D01*
X0218497Y0168494D01*
X0218434Y0168346D01*
X0218366Y0168200D01*
X0218295Y0168056D01*
X0218221Y0167914D01*
X0218143Y0167773D01*
X0218061Y0167635D01*
X0217976Y0167498D01*
X0217888Y0167364D01*
X0217796Y0167232D01*
X0217701Y0167102D01*
X0217603Y0166974D01*
X0217502Y0166849D01*
X0217398Y0166727D01*
X0217291Y0166607D01*
X0217181Y0166490D01*
X0217068Y0166375D01*
X0216952Y0166264D01*
X0216833Y0166155D01*
X0216712Y0166050D01*
X0216588Y0165947D01*
X0216462Y0165847D01*
X0216334Y0165751D01*
X0216203Y0165658D01*
X0216069Y0165568D01*
X0215934Y0165481D01*
X0215796Y0165398D01*
X0215657Y0165318D01*
X0215515Y0165242D01*
X0215372Y0165169D01*
X0215227Y0165100D01*
X0215080Y0165034D01*
X0214932Y0164972D01*
X0214782Y0164914D01*
X0214631Y0164859D01*
X0214478Y0164808D01*
X0214324Y0164761D01*
X0214169Y0164718D01*
X0214013Y0164679D01*
X0213857Y0164643D01*
X0213699Y0164612D01*
X0213541Y0164584D01*
X0213382Y0164560D01*
X0213222Y0164540D01*
X0213062Y0164524D01*
X0212902Y0164512D01*
X0212741Y0164504D01*
X0212580Y0164500D01*
X0212420Y0164500D01*
X0212259Y0164504D01*
X0212098Y0164512D01*
X0211938Y0164524D01*
X0211778Y0164540D01*
X0211618Y0164560D01*
X0211459Y0164584D01*
X0211301Y0164612D01*
X0211143Y0164643D01*
X0210987Y0164679D01*
X0210831Y0164718D01*
X0210676Y0164761D01*
X0210522Y0164808D01*
X0210369Y0164859D01*
X0210218Y0164914D01*
X0210068Y0164972D01*
X0209920Y0165034D01*
X0209773Y0165100D01*
X0209628Y0165169D01*
X0209485Y0165242D01*
X0209343Y0165318D01*
X0209204Y0165398D01*
X0209066Y0165481D01*
X0208931Y0165568D01*
X0208797Y0165658D01*
X0208666Y0165751D01*
X0208538Y0165847D01*
X0208412Y0165947D01*
X0208288Y0166050D01*
X0208167Y0166155D01*
X0208048Y0166264D01*
X0207932Y0166375D01*
X0207819Y0166490D01*
X0207709Y0166607D01*
X0207602Y0166727D01*
X0207498Y0166849D01*
X0207397Y0166974D01*
X0207299Y0167102D01*
X0207204Y0167232D01*
X0207112Y0167364D01*
X0207024Y0167498D01*
X0206939Y0167635D01*
X0206857Y0167773D01*
X0206779Y0167914D01*
X0206705Y0168056D01*
X0206634Y0168200D01*
X0206566Y0168346D01*
X0206503Y0168494D01*
X0206442Y0168643D01*
X0206386Y0168794D01*
X0206333Y0168946D01*
X0206284Y0169099D01*
X0206239Y0169253D01*
X0206198Y0169408D01*
X0206160Y0169565D01*
X0206127Y0169722D01*
X0206097Y0169880D01*
X0206071Y0170039D01*
X0206050Y0170198D01*
X0206032Y0170358D01*
X0206018Y0170518D01*
X0206008Y0170679D01*
X0206002Y0170839D01*
X0206000Y0171000D01*
X0254504Y0231000D02*
X0254506Y0231161D01*
X0254512Y0231321D01*
X0254522Y0231482D01*
X0254536Y0231642D01*
X0254554Y0231801D01*
X0254575Y0231961D01*
X0254601Y0232119D01*
X0254631Y0232277D01*
X0254664Y0232434D01*
X0254702Y0232591D01*
X0254743Y0232746D01*
X0254788Y0232900D01*
X0254837Y0233053D01*
X0254890Y0233205D01*
X0254946Y0233355D01*
X0255006Y0233504D01*
X0255070Y0233652D01*
X0255137Y0233798D01*
X0255208Y0233942D01*
X0255283Y0234084D01*
X0255361Y0234225D01*
X0255442Y0234363D01*
X0255527Y0234500D01*
X0255616Y0234634D01*
X0255707Y0234766D01*
X0255802Y0234896D01*
X0255900Y0235023D01*
X0256001Y0235148D01*
X0256105Y0235271D01*
X0256212Y0235390D01*
X0256322Y0235507D01*
X0256435Y0235622D01*
X0256551Y0235733D01*
X0256669Y0235842D01*
X0256790Y0235947D01*
X0256914Y0236050D01*
X0257040Y0236150D01*
X0257169Y0236246D01*
X0257300Y0236339D01*
X0257433Y0236429D01*
X0257568Y0236516D01*
X0257706Y0236599D01*
X0257845Y0236678D01*
X0257987Y0236755D01*
X0258130Y0236828D01*
X0258275Y0236897D01*
X0258422Y0236962D01*
X0258570Y0237024D01*
X0258720Y0237083D01*
X0258871Y0237137D01*
X0259023Y0237188D01*
X0259177Y0237235D01*
X0259332Y0237278D01*
X0259487Y0237317D01*
X0259644Y0237353D01*
X0259802Y0237385D01*
X0259960Y0237412D01*
X0260119Y0237436D01*
X0260278Y0237456D01*
X0260438Y0237472D01*
X0260599Y0237484D01*
X0260759Y0237492D01*
X0260920Y0237496D01*
X0261080Y0237496D01*
X0261241Y0237492D01*
X0261401Y0237484D01*
X0261562Y0237472D01*
X0261722Y0237456D01*
X0261881Y0237436D01*
X0262040Y0237412D01*
X0262198Y0237385D01*
X0262356Y0237353D01*
X0262513Y0237317D01*
X0262668Y0237278D01*
X0262823Y0237235D01*
X0262977Y0237188D01*
X0263129Y0237137D01*
X0263280Y0237083D01*
X0263430Y0237024D01*
X0263578Y0236962D01*
X0263725Y0236897D01*
X0263870Y0236828D01*
X0264013Y0236755D01*
X0264155Y0236678D01*
X0264294Y0236599D01*
X0264432Y0236516D01*
X0264567Y0236429D01*
X0264700Y0236339D01*
X0264831Y0236246D01*
X0264960Y0236150D01*
X0265086Y0236050D01*
X0265210Y0235947D01*
X0265331Y0235842D01*
X0265449Y0235733D01*
X0265565Y0235622D01*
X0265678Y0235507D01*
X0265788Y0235390D01*
X0265895Y0235271D01*
X0265999Y0235148D01*
X0266100Y0235023D01*
X0266198Y0234896D01*
X0266293Y0234766D01*
X0266384Y0234634D01*
X0266473Y0234500D01*
X0266558Y0234363D01*
X0266639Y0234225D01*
X0266717Y0234084D01*
X0266792Y0233942D01*
X0266863Y0233798D01*
X0266930Y0233652D01*
X0266994Y0233504D01*
X0267054Y0233355D01*
X0267110Y0233205D01*
X0267163Y0233053D01*
X0267212Y0232900D01*
X0267257Y0232746D01*
X0267298Y0232591D01*
X0267336Y0232434D01*
X0267369Y0232277D01*
X0267399Y0232119D01*
X0267425Y0231961D01*
X0267446Y0231801D01*
X0267464Y0231642D01*
X0267478Y0231482D01*
X0267488Y0231321D01*
X0267494Y0231161D01*
X0267496Y0231000D01*
X0267494Y0230839D01*
X0267488Y0230679D01*
X0267478Y0230518D01*
X0267464Y0230358D01*
X0267446Y0230199D01*
X0267425Y0230039D01*
X0267399Y0229881D01*
X0267369Y0229723D01*
X0267336Y0229566D01*
X0267298Y0229409D01*
X0267257Y0229254D01*
X0267212Y0229100D01*
X0267163Y0228947D01*
X0267110Y0228795D01*
X0267054Y0228645D01*
X0266994Y0228496D01*
X0266930Y0228348D01*
X0266863Y0228202D01*
X0266792Y0228058D01*
X0266717Y0227916D01*
X0266639Y0227775D01*
X0266558Y0227637D01*
X0266473Y0227500D01*
X0266384Y0227366D01*
X0266293Y0227234D01*
X0266198Y0227104D01*
X0266100Y0226977D01*
X0265999Y0226852D01*
X0265895Y0226729D01*
X0265788Y0226610D01*
X0265678Y0226493D01*
X0265565Y0226378D01*
X0265449Y0226267D01*
X0265331Y0226158D01*
X0265210Y0226053D01*
X0265086Y0225950D01*
X0264960Y0225850D01*
X0264831Y0225754D01*
X0264700Y0225661D01*
X0264567Y0225571D01*
X0264432Y0225484D01*
X0264294Y0225401D01*
X0264155Y0225322D01*
X0264013Y0225245D01*
X0263870Y0225172D01*
X0263725Y0225103D01*
X0263578Y0225038D01*
X0263430Y0224976D01*
X0263280Y0224917D01*
X0263129Y0224863D01*
X0262977Y0224812D01*
X0262823Y0224765D01*
X0262668Y0224722D01*
X0262513Y0224683D01*
X0262356Y0224647D01*
X0262198Y0224615D01*
X0262040Y0224588D01*
X0261881Y0224564D01*
X0261722Y0224544D01*
X0261562Y0224528D01*
X0261401Y0224516D01*
X0261241Y0224508D01*
X0261080Y0224504D01*
X0260920Y0224504D01*
X0260759Y0224508D01*
X0260599Y0224516D01*
X0260438Y0224528D01*
X0260278Y0224544D01*
X0260119Y0224564D01*
X0259960Y0224588D01*
X0259802Y0224615D01*
X0259644Y0224647D01*
X0259487Y0224683D01*
X0259332Y0224722D01*
X0259177Y0224765D01*
X0259023Y0224812D01*
X0258871Y0224863D01*
X0258720Y0224917D01*
X0258570Y0224976D01*
X0258422Y0225038D01*
X0258275Y0225103D01*
X0258130Y0225172D01*
X0257987Y0225245D01*
X0257845Y0225322D01*
X0257706Y0225401D01*
X0257568Y0225484D01*
X0257433Y0225571D01*
X0257300Y0225661D01*
X0257169Y0225754D01*
X0257040Y0225850D01*
X0256914Y0225950D01*
X0256790Y0226053D01*
X0256669Y0226158D01*
X0256551Y0226267D01*
X0256435Y0226378D01*
X0256322Y0226493D01*
X0256212Y0226610D01*
X0256105Y0226729D01*
X0256001Y0226852D01*
X0255900Y0226977D01*
X0255802Y0227104D01*
X0255707Y0227234D01*
X0255616Y0227366D01*
X0255527Y0227500D01*
X0255442Y0227637D01*
X0255361Y0227775D01*
X0255283Y0227916D01*
X0255208Y0228058D01*
X0255137Y0228202D01*
X0255070Y0228348D01*
X0255006Y0228496D01*
X0254946Y0228645D01*
X0254890Y0228795D01*
X0254837Y0228947D01*
X0254788Y0229100D01*
X0254743Y0229254D01*
X0254702Y0229409D01*
X0254664Y0229566D01*
X0254631Y0229723D01*
X0254601Y0229881D01*
X0254575Y0230039D01*
X0254554Y0230199D01*
X0254536Y0230358D01*
X0254522Y0230518D01*
X0254512Y0230679D01*
X0254506Y0230839D01*
X0254504Y0231000D01*
X0014504Y0231000D02*
X0014506Y0231161D01*
X0014512Y0231321D01*
X0014522Y0231482D01*
X0014536Y0231642D01*
X0014554Y0231801D01*
X0014575Y0231961D01*
X0014601Y0232119D01*
X0014631Y0232277D01*
X0014664Y0232434D01*
X0014702Y0232591D01*
X0014743Y0232746D01*
X0014788Y0232900D01*
X0014837Y0233053D01*
X0014890Y0233205D01*
X0014946Y0233355D01*
X0015006Y0233504D01*
X0015070Y0233652D01*
X0015137Y0233798D01*
X0015208Y0233942D01*
X0015283Y0234084D01*
X0015361Y0234225D01*
X0015442Y0234363D01*
X0015527Y0234500D01*
X0015616Y0234634D01*
X0015707Y0234766D01*
X0015802Y0234896D01*
X0015900Y0235023D01*
X0016001Y0235148D01*
X0016105Y0235271D01*
X0016212Y0235390D01*
X0016322Y0235507D01*
X0016435Y0235622D01*
X0016551Y0235733D01*
X0016669Y0235842D01*
X0016790Y0235947D01*
X0016914Y0236050D01*
X0017040Y0236150D01*
X0017169Y0236246D01*
X0017300Y0236339D01*
X0017433Y0236429D01*
X0017568Y0236516D01*
X0017706Y0236599D01*
X0017845Y0236678D01*
X0017987Y0236755D01*
X0018130Y0236828D01*
X0018275Y0236897D01*
X0018422Y0236962D01*
X0018570Y0237024D01*
X0018720Y0237083D01*
X0018871Y0237137D01*
X0019023Y0237188D01*
X0019177Y0237235D01*
X0019332Y0237278D01*
X0019487Y0237317D01*
X0019644Y0237353D01*
X0019802Y0237385D01*
X0019960Y0237412D01*
X0020119Y0237436D01*
X0020278Y0237456D01*
X0020438Y0237472D01*
X0020599Y0237484D01*
X0020759Y0237492D01*
X0020920Y0237496D01*
X0021080Y0237496D01*
X0021241Y0237492D01*
X0021401Y0237484D01*
X0021562Y0237472D01*
X0021722Y0237456D01*
X0021881Y0237436D01*
X0022040Y0237412D01*
X0022198Y0237385D01*
X0022356Y0237353D01*
X0022513Y0237317D01*
X0022668Y0237278D01*
X0022823Y0237235D01*
X0022977Y0237188D01*
X0023129Y0237137D01*
X0023280Y0237083D01*
X0023430Y0237024D01*
X0023578Y0236962D01*
X0023725Y0236897D01*
X0023870Y0236828D01*
X0024013Y0236755D01*
X0024155Y0236678D01*
X0024294Y0236599D01*
X0024432Y0236516D01*
X0024567Y0236429D01*
X0024700Y0236339D01*
X0024831Y0236246D01*
X0024960Y0236150D01*
X0025086Y0236050D01*
X0025210Y0235947D01*
X0025331Y0235842D01*
X0025449Y0235733D01*
X0025565Y0235622D01*
X0025678Y0235507D01*
X0025788Y0235390D01*
X0025895Y0235271D01*
X0025999Y0235148D01*
X0026100Y0235023D01*
X0026198Y0234896D01*
X0026293Y0234766D01*
X0026384Y0234634D01*
X0026473Y0234500D01*
X0026558Y0234363D01*
X0026639Y0234225D01*
X0026717Y0234084D01*
X0026792Y0233942D01*
X0026863Y0233798D01*
X0026930Y0233652D01*
X0026994Y0233504D01*
X0027054Y0233355D01*
X0027110Y0233205D01*
X0027163Y0233053D01*
X0027212Y0232900D01*
X0027257Y0232746D01*
X0027298Y0232591D01*
X0027336Y0232434D01*
X0027369Y0232277D01*
X0027399Y0232119D01*
X0027425Y0231961D01*
X0027446Y0231801D01*
X0027464Y0231642D01*
X0027478Y0231482D01*
X0027488Y0231321D01*
X0027494Y0231161D01*
X0027496Y0231000D01*
X0027494Y0230839D01*
X0027488Y0230679D01*
X0027478Y0230518D01*
X0027464Y0230358D01*
X0027446Y0230199D01*
X0027425Y0230039D01*
X0027399Y0229881D01*
X0027369Y0229723D01*
X0027336Y0229566D01*
X0027298Y0229409D01*
X0027257Y0229254D01*
X0027212Y0229100D01*
X0027163Y0228947D01*
X0027110Y0228795D01*
X0027054Y0228645D01*
X0026994Y0228496D01*
X0026930Y0228348D01*
X0026863Y0228202D01*
X0026792Y0228058D01*
X0026717Y0227916D01*
X0026639Y0227775D01*
X0026558Y0227637D01*
X0026473Y0227500D01*
X0026384Y0227366D01*
X0026293Y0227234D01*
X0026198Y0227104D01*
X0026100Y0226977D01*
X0025999Y0226852D01*
X0025895Y0226729D01*
X0025788Y0226610D01*
X0025678Y0226493D01*
X0025565Y0226378D01*
X0025449Y0226267D01*
X0025331Y0226158D01*
X0025210Y0226053D01*
X0025086Y0225950D01*
X0024960Y0225850D01*
X0024831Y0225754D01*
X0024700Y0225661D01*
X0024567Y0225571D01*
X0024432Y0225484D01*
X0024294Y0225401D01*
X0024155Y0225322D01*
X0024013Y0225245D01*
X0023870Y0225172D01*
X0023725Y0225103D01*
X0023578Y0225038D01*
X0023430Y0224976D01*
X0023280Y0224917D01*
X0023129Y0224863D01*
X0022977Y0224812D01*
X0022823Y0224765D01*
X0022668Y0224722D01*
X0022513Y0224683D01*
X0022356Y0224647D01*
X0022198Y0224615D01*
X0022040Y0224588D01*
X0021881Y0224564D01*
X0021722Y0224544D01*
X0021562Y0224528D01*
X0021401Y0224516D01*
X0021241Y0224508D01*
X0021080Y0224504D01*
X0020920Y0224504D01*
X0020759Y0224508D01*
X0020599Y0224516D01*
X0020438Y0224528D01*
X0020278Y0224544D01*
X0020119Y0224564D01*
X0019960Y0224588D01*
X0019802Y0224615D01*
X0019644Y0224647D01*
X0019487Y0224683D01*
X0019332Y0224722D01*
X0019177Y0224765D01*
X0019023Y0224812D01*
X0018871Y0224863D01*
X0018720Y0224917D01*
X0018570Y0224976D01*
X0018422Y0225038D01*
X0018275Y0225103D01*
X0018130Y0225172D01*
X0017987Y0225245D01*
X0017845Y0225322D01*
X0017706Y0225401D01*
X0017568Y0225484D01*
X0017433Y0225571D01*
X0017300Y0225661D01*
X0017169Y0225754D01*
X0017040Y0225850D01*
X0016914Y0225950D01*
X0016790Y0226053D01*
X0016669Y0226158D01*
X0016551Y0226267D01*
X0016435Y0226378D01*
X0016322Y0226493D01*
X0016212Y0226610D01*
X0016105Y0226729D01*
X0016001Y0226852D01*
X0015900Y0226977D01*
X0015802Y0227104D01*
X0015707Y0227234D01*
X0015616Y0227366D01*
X0015527Y0227500D01*
X0015442Y0227637D01*
X0015361Y0227775D01*
X0015283Y0227916D01*
X0015208Y0228058D01*
X0015137Y0228202D01*
X0015070Y0228348D01*
X0015006Y0228496D01*
X0014946Y0228645D01*
X0014890Y0228795D01*
X0014837Y0228947D01*
X0014788Y0229100D01*
X0014743Y0229254D01*
X0014702Y0229409D01*
X0014664Y0229566D01*
X0014631Y0229723D01*
X0014601Y0229881D01*
X0014575Y0230039D01*
X0014554Y0230199D01*
X0014536Y0230358D01*
X0014522Y0230518D01*
X0014512Y0230679D01*
X0014506Y0230839D01*
X0014504Y0231000D01*
X0254504Y0018500D02*
X0254506Y0018661D01*
X0254512Y0018821D01*
X0254522Y0018982D01*
X0254536Y0019142D01*
X0254554Y0019301D01*
X0254575Y0019461D01*
X0254601Y0019619D01*
X0254631Y0019777D01*
X0254664Y0019934D01*
X0254702Y0020091D01*
X0254743Y0020246D01*
X0254788Y0020400D01*
X0254837Y0020553D01*
X0254890Y0020705D01*
X0254946Y0020855D01*
X0255006Y0021004D01*
X0255070Y0021152D01*
X0255137Y0021298D01*
X0255208Y0021442D01*
X0255283Y0021584D01*
X0255361Y0021725D01*
X0255442Y0021863D01*
X0255527Y0022000D01*
X0255616Y0022134D01*
X0255707Y0022266D01*
X0255802Y0022396D01*
X0255900Y0022523D01*
X0256001Y0022648D01*
X0256105Y0022771D01*
X0256212Y0022890D01*
X0256322Y0023007D01*
X0256435Y0023122D01*
X0256551Y0023233D01*
X0256669Y0023342D01*
X0256790Y0023447D01*
X0256914Y0023550D01*
X0257040Y0023650D01*
X0257169Y0023746D01*
X0257300Y0023839D01*
X0257433Y0023929D01*
X0257568Y0024016D01*
X0257706Y0024099D01*
X0257845Y0024178D01*
X0257987Y0024255D01*
X0258130Y0024328D01*
X0258275Y0024397D01*
X0258422Y0024462D01*
X0258570Y0024524D01*
X0258720Y0024583D01*
X0258871Y0024637D01*
X0259023Y0024688D01*
X0259177Y0024735D01*
X0259332Y0024778D01*
X0259487Y0024817D01*
X0259644Y0024853D01*
X0259802Y0024885D01*
X0259960Y0024912D01*
X0260119Y0024936D01*
X0260278Y0024956D01*
X0260438Y0024972D01*
X0260599Y0024984D01*
X0260759Y0024992D01*
X0260920Y0024996D01*
X0261080Y0024996D01*
X0261241Y0024992D01*
X0261401Y0024984D01*
X0261562Y0024972D01*
X0261722Y0024956D01*
X0261881Y0024936D01*
X0262040Y0024912D01*
X0262198Y0024885D01*
X0262356Y0024853D01*
X0262513Y0024817D01*
X0262668Y0024778D01*
X0262823Y0024735D01*
X0262977Y0024688D01*
X0263129Y0024637D01*
X0263280Y0024583D01*
X0263430Y0024524D01*
X0263578Y0024462D01*
X0263725Y0024397D01*
X0263870Y0024328D01*
X0264013Y0024255D01*
X0264155Y0024178D01*
X0264294Y0024099D01*
X0264432Y0024016D01*
X0264567Y0023929D01*
X0264700Y0023839D01*
X0264831Y0023746D01*
X0264960Y0023650D01*
X0265086Y0023550D01*
X0265210Y0023447D01*
X0265331Y0023342D01*
X0265449Y0023233D01*
X0265565Y0023122D01*
X0265678Y0023007D01*
X0265788Y0022890D01*
X0265895Y0022771D01*
X0265999Y0022648D01*
X0266100Y0022523D01*
X0266198Y0022396D01*
X0266293Y0022266D01*
X0266384Y0022134D01*
X0266473Y0022000D01*
X0266558Y0021863D01*
X0266639Y0021725D01*
X0266717Y0021584D01*
X0266792Y0021442D01*
X0266863Y0021298D01*
X0266930Y0021152D01*
X0266994Y0021004D01*
X0267054Y0020855D01*
X0267110Y0020705D01*
X0267163Y0020553D01*
X0267212Y0020400D01*
X0267257Y0020246D01*
X0267298Y0020091D01*
X0267336Y0019934D01*
X0267369Y0019777D01*
X0267399Y0019619D01*
X0267425Y0019461D01*
X0267446Y0019301D01*
X0267464Y0019142D01*
X0267478Y0018982D01*
X0267488Y0018821D01*
X0267494Y0018661D01*
X0267496Y0018500D01*
X0267494Y0018339D01*
X0267488Y0018179D01*
X0267478Y0018018D01*
X0267464Y0017858D01*
X0267446Y0017699D01*
X0267425Y0017539D01*
X0267399Y0017381D01*
X0267369Y0017223D01*
X0267336Y0017066D01*
X0267298Y0016909D01*
X0267257Y0016754D01*
X0267212Y0016600D01*
X0267163Y0016447D01*
X0267110Y0016295D01*
X0267054Y0016145D01*
X0266994Y0015996D01*
X0266930Y0015848D01*
X0266863Y0015702D01*
X0266792Y0015558D01*
X0266717Y0015416D01*
X0266639Y0015275D01*
X0266558Y0015137D01*
X0266473Y0015000D01*
X0266384Y0014866D01*
X0266293Y0014734D01*
X0266198Y0014604D01*
X0266100Y0014477D01*
X0265999Y0014352D01*
X0265895Y0014229D01*
X0265788Y0014110D01*
X0265678Y0013993D01*
X0265565Y0013878D01*
X0265449Y0013767D01*
X0265331Y0013658D01*
X0265210Y0013553D01*
X0265086Y0013450D01*
X0264960Y0013350D01*
X0264831Y0013254D01*
X0264700Y0013161D01*
X0264567Y0013071D01*
X0264432Y0012984D01*
X0264294Y0012901D01*
X0264155Y0012822D01*
X0264013Y0012745D01*
X0263870Y0012672D01*
X0263725Y0012603D01*
X0263578Y0012538D01*
X0263430Y0012476D01*
X0263280Y0012417D01*
X0263129Y0012363D01*
X0262977Y0012312D01*
X0262823Y0012265D01*
X0262668Y0012222D01*
X0262513Y0012183D01*
X0262356Y0012147D01*
X0262198Y0012115D01*
X0262040Y0012088D01*
X0261881Y0012064D01*
X0261722Y0012044D01*
X0261562Y0012028D01*
X0261401Y0012016D01*
X0261241Y0012008D01*
X0261080Y0012004D01*
X0260920Y0012004D01*
X0260759Y0012008D01*
X0260599Y0012016D01*
X0260438Y0012028D01*
X0260278Y0012044D01*
X0260119Y0012064D01*
X0259960Y0012088D01*
X0259802Y0012115D01*
X0259644Y0012147D01*
X0259487Y0012183D01*
X0259332Y0012222D01*
X0259177Y0012265D01*
X0259023Y0012312D01*
X0258871Y0012363D01*
X0258720Y0012417D01*
X0258570Y0012476D01*
X0258422Y0012538D01*
X0258275Y0012603D01*
X0258130Y0012672D01*
X0257987Y0012745D01*
X0257845Y0012822D01*
X0257706Y0012901D01*
X0257568Y0012984D01*
X0257433Y0013071D01*
X0257300Y0013161D01*
X0257169Y0013254D01*
X0257040Y0013350D01*
X0256914Y0013450D01*
X0256790Y0013553D01*
X0256669Y0013658D01*
X0256551Y0013767D01*
X0256435Y0013878D01*
X0256322Y0013993D01*
X0256212Y0014110D01*
X0256105Y0014229D01*
X0256001Y0014352D01*
X0255900Y0014477D01*
X0255802Y0014604D01*
X0255707Y0014734D01*
X0255616Y0014866D01*
X0255527Y0015000D01*
X0255442Y0015137D01*
X0255361Y0015275D01*
X0255283Y0015416D01*
X0255208Y0015558D01*
X0255137Y0015702D01*
X0255070Y0015848D01*
X0255006Y0015996D01*
X0254946Y0016145D01*
X0254890Y0016295D01*
X0254837Y0016447D01*
X0254788Y0016600D01*
X0254743Y0016754D01*
X0254702Y0016909D01*
X0254664Y0017066D01*
X0254631Y0017223D01*
X0254601Y0017381D01*
X0254575Y0017539D01*
X0254554Y0017699D01*
X0254536Y0017858D01*
X0254522Y0018018D01*
X0254512Y0018179D01*
X0254506Y0018339D01*
X0254504Y0018500D01*
M02*
