%
M48
M72
T01C0.0130
T02C0.0276
T03C0.0320
T04C0.0394
T05C0.0400
T06C0.0440
T07C0.0470
T08C0.1299
T09C0.1300
%
T01
X8350Y9370
X10330Y9670
X16390Y12460
X22330Y8950
X24400Y9370
X8230Y18970
T02
X8504Y20817
X9291Y20817
X10078Y20817
X7716Y20817
X6929Y20817
X6141Y20817
X5354Y20817
X4567Y20817
X4567Y15305
X5354Y15305
X6141Y15305
X6929Y15305
X7716Y15305
X8504Y15305
X9291Y15305
X10078Y15305
T03
X13350Y14600
X13350Y16600
X13350Y18600
X13350Y20600
X13600Y11600
X13600Y10600
X13600Y9600
X14350Y8600
X15100Y8600
X15600Y9600
X15600Y10600
X15600Y11600
X17600Y11600
X17600Y10600
X17600Y9600
X19100Y8600
X19600Y9600
X20350Y9100
X19600Y10600
X19600Y11600
X22100Y9350
X23850Y9350
X25600Y9350
X25600Y5350
X23850Y5350
X22100Y5350
X20350Y5100
X19100Y6850
X15100Y6850
X14350Y6850
X14350Y5100
X10350Y5100
X9600Y5100
X9600Y6850
X10350Y6850
X10350Y8600
X9600Y8600
X9600Y9600
X9600Y10600
X9600Y11600
X7600Y11600
X7600Y10600
X7600Y9600
X5600Y9600
X5600Y8600
X4850Y8600
X3600Y9600
X3600Y10600
X3600Y11600
X1600Y11600
X1600Y10600
X1600Y9600
X850Y8600
X850Y6850
X850Y5100
X4850Y5100
X5600Y5100
X5600Y6850
X4850Y6850
X5600Y10600
X5600Y11600
X11600Y11600
X11600Y10600
X11600Y9600
T04
X17141Y23600
X18519Y23600
X21141Y23600
X22519Y23600
T05
X25460Y19630
X27240Y19630
X27240Y17070
X25460Y17070
X25460Y14630
X27240Y14630
X27240Y12070
X25460Y12070
X15350Y16100
X15350Y17100
X15350Y18100
T06
X7100Y2600
X6100Y2600
X5100Y2600
T07
X10366Y1850
X12334Y1850
X16116Y1850
X18084Y1850
X21116Y1850
X23084Y1850
X14334Y23350
X12366Y23350
T08
X2100Y2100
X2100Y23100
X26100Y23100
X26100Y1850
T09
X21250Y17100
M30
