G75*
%MOIN*%
%OFA0B0*%
%FSLAX25Y25*%
%IPPOS*%
%LPD*%
%AMOC8*
5,1,8,0,0,1.08239X$1,22.5*
%
%ADD10C,0.04156*%
%ADD11C,0.06000*%
%ADD12C,0.07500*%
%ADD13OC8,0.07500*%
%ADD14OC8,0.04800*%
%ADD15C,0.07400*%
%ADD16C,0.07050*%
%ADD17C,0.08600*%
%ADD18C,0.07400*%
%ADD19C,0.00600*%
%ADD20C,0.02000*%
%ADD21C,0.02700*%
D10*
X0045665Y0148891D02*
X0045665Y0153047D01*
X0053539Y0153047D02*
X0053539Y0148891D01*
X0061413Y0148891D02*
X0061413Y0153047D01*
X0069287Y0153047D02*
X0069287Y0148891D01*
X0077161Y0148891D02*
X0077161Y0153047D01*
X0085035Y0153047D02*
X0085035Y0148891D01*
X0092909Y0148891D02*
X0092909Y0153047D01*
X0100783Y0153047D02*
X0100783Y0148891D01*
X0100783Y0208165D02*
X0100783Y0212321D01*
X0092909Y0212321D02*
X0092909Y0208165D01*
X0085035Y0208165D02*
X0085035Y0212321D01*
X0077161Y0212321D02*
X0077161Y0208165D01*
X0069287Y0208165D02*
X0069287Y0212321D01*
X0061413Y0212321D02*
X0061413Y0208165D01*
X0053539Y0208165D02*
X0053539Y0212321D01*
X0045665Y0212321D02*
X0045665Y0208165D01*
D11*
X0150500Y0181000D02*
X0156500Y0181000D01*
X0156500Y0171000D02*
X0150500Y0171000D01*
X0150500Y0161000D02*
X0156500Y0161000D01*
D12*
X0133500Y0166000D03*
X0133500Y0206000D03*
D13*
X0133500Y0186000D03*
X0133500Y0146000D03*
D14*
X0136000Y0116000D03*
X0136000Y0106000D03*
X0136000Y0096000D03*
X0143500Y0086000D03*
X0151000Y0086000D03*
X0156000Y0096000D03*
X0156000Y0106000D03*
X0156000Y0116000D03*
X0176000Y0116000D03*
X0176000Y0106000D03*
X0176000Y0096000D03*
X0191000Y0086000D03*
X0196000Y0096000D03*
X0203500Y0091000D03*
X0196000Y0106000D03*
X0196000Y0116000D03*
X0221000Y0093500D03*
X0238500Y0093500D03*
X0256000Y0093500D03*
X0256000Y0053500D03*
X0238500Y0053500D03*
X0221000Y0053500D03*
X0203500Y0051000D03*
X0191000Y0068500D03*
X0151000Y0068500D03*
X0143500Y0068500D03*
X0143500Y0051000D03*
X0103500Y0051000D03*
X0096000Y0051000D03*
X0096000Y0068500D03*
X0103500Y0068500D03*
X0103500Y0086000D03*
X0096000Y0086000D03*
X0096000Y0096000D03*
X0096000Y0106000D03*
X0096000Y0116000D03*
X0076000Y0116000D03*
X0076000Y0106000D03*
X0076000Y0096000D03*
X0056000Y0096000D03*
X0056000Y0086000D03*
X0048500Y0086000D03*
X0036000Y0096000D03*
X0036000Y0106000D03*
X0036000Y0116000D03*
X0016000Y0116000D03*
X0016000Y0106000D03*
X0016000Y0096000D03*
X0008500Y0086000D03*
X0008500Y0068500D03*
X0008500Y0051000D03*
X0048500Y0051000D03*
X0056000Y0051000D03*
X0056000Y0068500D03*
X0048500Y0068500D03*
X0056000Y0106000D03*
X0056000Y0116000D03*
X0116000Y0116000D03*
X0116000Y0106000D03*
X0116000Y0096000D03*
D15*
X0071000Y0029700D02*
X0071000Y0022300D01*
X0061000Y0022300D02*
X0061000Y0029700D01*
X0051000Y0029700D02*
X0051000Y0022300D01*
D16*
X0103657Y0022025D02*
X0103657Y0014975D01*
X0123343Y0014975D02*
X0123343Y0022025D01*
X0161157Y0022025D02*
X0161157Y0014975D01*
X0180843Y0014975D02*
X0180843Y0022025D01*
X0211157Y0022025D02*
X0211157Y0014975D01*
X0230843Y0014975D02*
X0230843Y0022025D01*
X0143343Y0229975D02*
X0143343Y0237025D01*
X0123657Y0237025D02*
X0123657Y0229975D01*
D17*
X0171413Y0236000D03*
X0185193Y0236000D03*
X0211413Y0236000D03*
X0225193Y0236000D03*
D18*
X0254600Y0196300D03*
X0272400Y0196300D03*
X0272400Y0170700D03*
X0254600Y0170700D03*
X0254600Y0146300D03*
X0272400Y0146300D03*
X0272400Y0120700D03*
X0254600Y0120700D03*
D19*
X0087100Y0076900D02*
X0048850Y0038650D01*
X0036700Y0050800D01*
X0008500Y0050800D01*
X0008500Y0051000D01*
X0045100Y0071800D02*
X0048400Y0068500D01*
X0048500Y0068500D01*
X0045100Y0071800D02*
X0045100Y0091600D01*
X0032500Y0104200D01*
X0032500Y0117400D01*
X0045400Y0130300D01*
X0045400Y0152800D01*
X0045665Y0153047D01*
X0045700Y0153100D01*
X0045700Y0203800D01*
X0050500Y0208600D01*
X0050500Y0213700D01*
X0053500Y0216700D01*
X0225400Y0216700D01*
X0225400Y0235900D01*
X0225193Y0236000D01*
X0225400Y0216700D02*
X0225400Y0175600D01*
X0254500Y0146500D01*
X0254600Y0146300D01*
X0254800Y0146200D01*
X0254800Y0120700D01*
X0254600Y0120700D01*
X0238300Y0081100D02*
X0197200Y0122200D01*
X0102100Y0122200D01*
X0096100Y0116200D01*
X0096000Y0116000D01*
X0095500Y0100300D02*
X0087100Y0091900D01*
X0087100Y0076900D01*
X0085900Y0080800D02*
X0056200Y0051100D01*
X0056000Y0051000D01*
X0048850Y0038650D02*
X0061000Y0026500D01*
X0061000Y0026000D01*
X0071000Y0026000D02*
X0088300Y0043300D01*
X0088300Y0083200D01*
X0101800Y0096700D01*
X0103300Y0096700D01*
X0102400Y0099100D02*
X0112900Y0099100D01*
X0116000Y0096000D01*
X0105100Y0100300D02*
X0095500Y0100300D01*
X0096100Y0096100D02*
X0096000Y0096000D01*
X0096100Y0096100D02*
X0099400Y0096100D01*
X0102400Y0099100D01*
X0105100Y0100300D02*
X0120700Y0115900D01*
X0136000Y0115900D01*
X0136000Y0116000D01*
X0137800Y0102700D02*
X0162700Y0102700D01*
X0176000Y0116000D01*
X0163900Y0124600D02*
X0196600Y0124600D01*
X0256000Y0065200D01*
X0256000Y0053500D01*
X0238500Y0053500D02*
X0238300Y0053500D01*
X0238300Y0081100D01*
X0203500Y0051000D02*
X0203500Y0026200D01*
X0211000Y0018700D01*
X0211157Y0018500D01*
X0211300Y0018700D01*
X0230800Y0018700D01*
X0230843Y0018500D01*
X0180843Y0018500D02*
X0180700Y0018700D01*
X0161200Y0018700D01*
X0161157Y0018500D01*
X0160900Y0018700D01*
X0160900Y0063400D01*
X0151000Y0073300D01*
X0151000Y0086000D01*
X0156000Y0096000D02*
X0155800Y0096100D01*
X0136000Y0096100D01*
X0136000Y0096000D01*
X0132700Y0097600D02*
X0137800Y0102700D01*
X0132700Y0097600D02*
X0132700Y0089200D01*
X0103600Y0060100D01*
X0103600Y0051100D01*
X0103500Y0051000D01*
X0085900Y0080800D02*
X0085900Y0094600D01*
X0085300Y0095200D01*
X0085300Y0152800D01*
X0085035Y0153047D01*
X0061300Y0166900D02*
X0048700Y0154300D01*
X0048700Y0128800D01*
X0036100Y0116200D01*
X0036000Y0116000D01*
X0048700Y0115300D02*
X0048700Y0086200D01*
X0048500Y0086000D01*
X0049900Y0092200D02*
X0055900Y0086200D01*
X0056000Y0086000D01*
X0049900Y0092200D02*
X0049900Y0114700D01*
X0056800Y0121600D01*
X0056800Y0152800D01*
X0092800Y0188800D01*
X0092800Y0208000D01*
X0092909Y0208165D01*
X0085035Y0208165D02*
X0085000Y0208000D01*
X0085000Y0188800D01*
X0049900Y0153700D01*
X0049900Y0116500D01*
X0048700Y0115300D01*
X0056000Y0116000D02*
X0056200Y0115900D01*
X0061300Y0115900D01*
X0083500Y0093700D01*
X0076000Y0096000D02*
X0076000Y0096100D01*
X0056200Y0096100D01*
X0056000Y0096000D01*
X0036000Y0096000D02*
X0035800Y0096100D01*
X0016000Y0096100D01*
X0016000Y0096000D01*
X0061300Y0166900D02*
X0061300Y0208000D01*
X0061413Y0208165D01*
X0066100Y0205900D02*
X0066100Y0211900D01*
X0062500Y0215500D01*
X0060100Y0215500D01*
X0053800Y0209200D01*
X0053800Y0208300D01*
X0053539Y0208165D01*
X0066100Y0205900D02*
X0082300Y0189700D01*
X0123657Y0233500D02*
X0143343Y0233500D01*
X0254600Y0196300D02*
X0254800Y0196300D01*
X0254800Y0170800D01*
X0254600Y0170700D01*
X0196000Y0096100D02*
X0176200Y0096100D01*
X0176000Y0096000D01*
X0196000Y0096100D02*
X0196000Y0096000D01*
D20*
X0199300Y0093400D02*
X0200200Y0094300D01*
X0200200Y0095200D01*
X0205000Y0095200D01*
X0206500Y0093700D01*
X0220900Y0093700D01*
X0221000Y0093500D01*
X0223300Y0089500D02*
X0205000Y0089500D01*
X0203500Y0091000D01*
X0199300Y0093400D02*
X0199300Y0088600D01*
X0191200Y0080500D01*
X0191200Y0068500D01*
X0191000Y0068500D01*
X0200200Y0095200D02*
X0200200Y0101800D01*
X0196000Y0106000D01*
X0195100Y0106300D01*
X0181300Y0120100D01*
X0174400Y0120100D01*
X0160300Y0106000D01*
X0156000Y0106000D01*
X0161800Y0091900D02*
X0143500Y0091900D01*
X0139300Y0087700D01*
X0139300Y0067000D01*
X0143500Y0062800D01*
X0143500Y0051000D01*
X0123100Y0018700D02*
X0123343Y0018500D01*
X0123100Y0018700D02*
X0122500Y0018700D01*
X0098800Y0042400D01*
X0073300Y0016900D01*
X0058900Y0016900D01*
X0051100Y0024700D01*
X0051100Y0025900D01*
X0051000Y0026000D01*
X0048500Y0051000D02*
X0048700Y0051100D01*
X0048700Y0055300D01*
X0060100Y0066700D01*
X0060100Y0087700D01*
X0055900Y0091900D01*
X0054400Y0091900D01*
X0052000Y0094300D01*
X0052000Y0102100D01*
X0055900Y0106000D01*
X0056000Y0106000D01*
X0076000Y0106000D02*
X0081100Y0111100D01*
X0081100Y0154600D01*
X0083500Y0157000D01*
X0094300Y0157000D01*
X0097600Y0153700D01*
X0100000Y0153700D01*
X0100783Y0153047D01*
X0100900Y0153100D01*
X0112900Y0153100D01*
X0131200Y0171400D01*
X0153100Y0171400D01*
X0153500Y0171000D01*
X0153400Y0161200D02*
X0153500Y0161000D01*
X0153400Y0161200D02*
X0138400Y0161200D01*
X0136900Y0162700D01*
X0091900Y0117700D01*
X0091900Y0110500D01*
X0095500Y0106900D01*
X0096000Y0106000D01*
X0100300Y0106000D01*
X0114400Y0120100D01*
X0137800Y0120100D01*
X0140200Y0117700D01*
X0140200Y0110200D01*
X0136000Y0106000D01*
X0120100Y0097600D02*
X0120100Y0094000D01*
X0108400Y0082300D01*
X0107500Y0082000D01*
X0103500Y0086000D01*
X0107500Y0082000D02*
X0107500Y0066700D01*
X0096100Y0055300D01*
X0096100Y0051100D01*
X0096000Y0051000D01*
X0091900Y0049300D02*
X0098800Y0042400D01*
X0091900Y0049300D02*
X0091900Y0070300D01*
X0095800Y0074200D01*
X0095800Y0085900D01*
X0096000Y0086000D01*
X0116200Y0101500D02*
X0120100Y0097600D01*
X0116200Y0101500D02*
X0116200Y0106000D01*
X0116000Y0106000D01*
X0161800Y0091900D02*
X0175900Y0106000D01*
X0176000Y0106000D01*
X0136900Y0162700D02*
X0133600Y0166000D01*
X0133500Y0166000D01*
X0138400Y0181000D02*
X0134200Y0185200D01*
X0133500Y0186000D01*
X0133300Y0186100D01*
X0111400Y0208000D01*
X0100900Y0208000D01*
X0100783Y0208165D01*
X0138400Y0181000D02*
X0153500Y0181000D01*
X0171413Y0236000D02*
X0171700Y0236200D01*
X0176800Y0236200D01*
X0182500Y0241900D01*
X0205600Y0241900D01*
X0211300Y0236200D01*
X0211413Y0236000D01*
X0272400Y0196300D02*
X0272500Y0196300D01*
X0272500Y0171700D01*
X0272400Y0170700D01*
X0272500Y0170500D01*
X0272500Y0147100D01*
X0272400Y0146300D01*
X0272500Y0146200D01*
X0272500Y0120700D01*
X0272400Y0120700D01*
X0256000Y0093700D02*
X0256000Y0093500D01*
X0256000Y0093700D02*
X0244000Y0093700D01*
X0008500Y0086000D02*
X0008500Y0068500D01*
D21*
X0083500Y0093700D03*
X0103300Y0096700D03*
X0163900Y0124600D03*
X0223300Y0089500D03*
X0244000Y0093700D03*
X0082300Y0189700D03*
M02*
